<svg width="32" height="32" viewBox="0 0 32 32" fill="none" xmlns="http://www.w3.org/2000/svg">
<g clip-path="url(#clip0_328_1032)">
<circle cx="16" cy="16" r="16" fill="url(#paint0_linear_328_1032)"/>
<circle cx="16" cy="16" r="14.5" stroke="black" stroke-opacity="0.8" stroke-width="3"/>
<circle cx="16" cy="16" r="14" stroke="black" stroke-opacity="0.4" stroke-width="4"/>
<path d="M5.17896 26C5.00296 26 4.83796 25.934 4.68396 25.802C4.55196 25.648 4.48596 25.483 4.48596 25.307C4.48596 25.197 4.49696 25.098 4.51896 25.01L12.274 3.824C12.34 3.582 12.472 3.373 12.67 3.197C12.89 2.999 13.187 2.9 13.561 2.9H18.445C18.819 2.9 19.105 2.999 19.303 3.197C19.523 3.373 19.666 3.582 19.732 3.824L27.454 25.01C27.498 25.098 27.52 25.197 27.52 25.307C27.52 25.483 27.443 25.648 27.289 25.802C27.157 25.934 26.992 26 26.794 26H22.735C22.405 26 22.152 25.923 21.976 25.769C21.822 25.593 21.723 25.439 21.679 25.307L20.392 21.941H11.581L10.327 25.307C10.283 25.439 10.184 25.593 10.03 25.769C9.87596 25.923 9.61197 26 9.23797 26H5.17896ZM12.934 17.189H19.072L16.003 8.477L12.934 17.189Z" fill="url(#paint1_radial_328_1032)" fill-opacity="0.8"/>
<path d="M4.68396 25.802L4.30434 26.1274L4.32937 26.1566L4.35857 26.1816L4.68396 25.802ZM4.51896 25.01L4.04943 24.8381L4.04032 24.863L4.03389 24.8887L4.51896 25.01ZM12.274 3.824L12.7435 3.99587L12.7508 3.97598L12.7563 3.95556L12.274 3.824ZM12.67 3.197L13.0022 3.57071L13.0044 3.56865L12.67 3.197ZM19.303 3.197L18.9494 3.55055L18.969 3.57013L18.9906 3.58743L19.303 3.197ZM19.732 3.824L19.2496 3.95556L19.2551 3.97565L19.2622 3.99522L19.732 3.824ZM27.454 25.01L26.9842 25.1812L26.994 25.2081L27.0068 25.2336L27.454 25.01ZM27.289 25.802L27.6425 26.1556L27.6425 26.1556L27.289 25.802ZM21.976 25.769L21.5997 26.0983L21.6216 26.1233L21.6467 26.1453L21.976 25.769ZM21.679 25.307L22.1533 25.1489L22.1499 25.1386L22.146 25.1284L21.679 25.307ZM20.392 21.941L20.859 21.7624L20.7361 21.441H20.392V21.941ZM11.581 21.941V21.441H11.2337L11.1124 21.7664L11.581 21.941ZM10.327 25.307L9.85842 25.1324L9.85538 25.1406L9.85262 25.1489L10.327 25.307ZM10.03 25.769L10.3835 26.1226L10.3953 26.1108L10.4063 26.0983L10.03 25.769ZM12.934 17.189L12.4624 17.0229L12.2277 17.689H12.934V17.189ZM19.072 17.189V17.689H19.7782L19.5436 17.0229L19.072 17.189ZM16.003 8.477L16.4746 8.31087L16.003 6.97215L15.5314 8.31087L16.003 8.477ZM5.17896 25.5C5.14028 25.5 5.08737 25.4892 5.00936 25.4224L4.35857 26.1816C4.58856 26.3788 4.86565 26.5 5.17896 26.5V25.5ZM5.06359 25.4766C4.99672 25.3986 4.98596 25.3457 4.98596 25.307H3.98596C3.98596 25.6203 4.10721 25.8974 4.30434 26.1274L5.06359 25.4766ZM4.98596 25.307C4.98596 25.2296 4.99379 25.1723 5.00404 25.1313L4.03389 24.8887C4.00014 25.0237 3.98596 25.1644 3.98596 25.307H4.98596ZM4.9885 25.1819L12.7435 3.99587L11.8044 3.65213L4.04943 24.8381L4.9885 25.1819ZM12.7563 3.95556C12.7954 3.8125 12.8724 3.68606 13.0021 3.5707L12.3378 2.82329C12.0716 3.05993 11.8846 3.3515 11.7916 3.69244L12.7563 3.95556ZM13.0044 3.56865C13.1103 3.47336 13.2768 3.4 13.561 3.4V2.4C13.0972 2.4 12.6696 2.52464 12.3355 2.82535L13.0044 3.56865ZM13.561 3.4H18.445V2.4H13.561V3.4ZM18.445 3.4C18.7323 3.4 18.8733 3.47446 18.9494 3.55055L19.6565 2.84345C19.3366 2.52353 18.9056 2.4 18.445 2.4V3.4ZM18.9906 3.58743C19.1386 3.70583 19.2148 3.82808 19.2496 3.95556L20.2143 3.69244C20.1171 3.33592 19.9073 3.04017 19.6153 2.80656L18.9906 3.58743ZM19.2622 3.99522L26.9842 25.1812L27.9237 24.8388L20.2017 3.65277L19.2622 3.99522ZM27.0068 25.2336C27.0121 25.2443 27.02 25.2654 27.02 25.307H28.02C28.02 25.1286 27.9838 24.9517 27.9012 24.7864L27.0068 25.2336ZM27.02 25.307C27.02 25.3204 27.0192 25.3646 26.9354 25.4484L27.6425 26.1556C27.8667 25.9314 28.02 25.6456 28.02 25.307H27.02ZM26.9354 25.4484C26.9033 25.4805 26.8683 25.5 26.794 25.5V26.5C27.1156 26.5 27.4106 26.3875 27.6425 26.1556L26.9354 25.4484ZM26.794 25.5H22.735V26.5H26.794V25.5ZM22.735 25.5C22.4767 25.5 22.3587 25.4395 22.3052 25.3927L21.6467 26.1453C21.9452 26.4065 22.3333 26.5 22.735 26.5V25.5ZM22.3523 25.4397C22.2162 25.2843 22.1667 25.1892 22.1533 25.1489L21.2046 25.4651C21.2792 25.6888 21.4277 25.9017 21.5997 26.0983L22.3523 25.4397ZM22.146 25.1284L20.859 21.7624L19.9249 22.1196L21.2119 25.4856L22.146 25.1284ZM20.392 21.441H11.581V22.441H20.392V21.441ZM11.1124 21.7664L9.85842 25.1324L10.7955 25.4816L12.0495 22.1156L11.1124 21.7664ZM9.85262 25.1489C9.8392 25.1892 9.7897 25.2843 9.65368 25.4397L10.4063 26.0983C10.5782 25.9017 10.7267 25.6888 10.8013 25.4651L9.85262 25.1489ZM9.67641 25.4154C9.66434 25.4275 9.56811 25.5 9.23797 25.5V26.5C9.65582 26.5 10.0876 26.4185 10.3835 26.1226L9.67641 25.4154ZM9.23797 25.5H5.17896V26.5H9.23797V25.5ZM12.934 17.689H19.072V16.689H12.934V17.689ZM19.5436 17.0229L16.4746 8.31087L15.5314 8.64313L18.6004 17.3551L19.5436 17.0229ZM15.5314 8.31087L12.4624 17.0229L13.4056 17.3551L16.4746 8.64313L15.5314 8.31087Z" fill="black"/>
</g>
<defs>
<linearGradient id="paint0_linear_328_1032" x1="4.8" y1="3.73333" x2="27.2" y2="28.2667" gradientUnits="userSpaceOnUse">
<stop offset="0.145833" stop-color="#F20944"/>
<stop offset="0.536458" stop-color="#FED253"/>
<stop offset="0.947917" stop-color="#42FFFF"/>
</linearGradient>
<radialGradient id="paint1_radial_328_1032" cx="0" cy="0" r="1" gradientUnits="userSpaceOnUse" gradientTransform="translate(16 14.5) rotate(90) scale(25.5 15.8667)">
<stop offset="0.203125" stop-color="white"/>
<stop offset="1" stop-color="white" stop-opacity="0"/>
</radialGradient>
<clipPath id="clip0_328_1032">
<rect width="32" height="32" fill="white"/>
</clipPath>
</defs>
</svg>
